<svg width="33" height="33" viewBox="0 0 33 33" fill="none" xmlns="http://www.w3.org/2000/svg">
<circle cx="16.5" cy="16.5" r="16.5" fill="#7DD8AB"/>
<path d="M14.6548 19.5452L13.1165 15.064C13.0095 14.957 12.5368 15.5545 12.3139 15.8666C12.0999 16.1876 11.4667 16.0895 11.1769 16.0004L7.23073 13.7932C6.53513 12.83 7.56512 11.9873 8.30087 12.2548L11.3775 13.7263L12.6483 10.9841C13.2904 9.7534 14.6103 9.84703 15.1899 10.0477L19.3367 10.7834C19.9253 10.6764 20.3846 11.2739 20.5407 11.586L22.1459 15.064L21.8783 16.0004H20.5407L19.9387 14.8633L18.601 12.3217L17.464 12.1211C17.0359 12.1211 16.9735 12.3886 16.9958 12.5224L19.6712 22.4212L19.9387 24.2271L22.1459 29.3103C22.1459 31.0493 20.942 31.183 19.9387 30.3804L17.1965 25.2972L16.7951 22.1537C16.6346 21.3511 15.9702 21.418 15.6581 21.5517L13.3172 22.7557L13.1165 23.157L15.4575 29.5109C15.511 31.4907 13.5847 31.183 12.849 30.3804L10.4411 22.4212C10.1736 21.6186 13.1388 20.1695 14.6548 19.5452Z" fill="white"/>
<path fill-rule="evenodd" clip-rule="evenodd" d="M14.4353 4.40977C15.4005 4.29521 16.0849 4.40068 16.2008 4.74179C16.3072 5.05462 15.9136 5.50161 15.2035 5.95714C15.4487 6.34803 15.5904 6.81038 15.5904 7.30586C15.5904 8.70954 14.4525 9.84745 13.0488 9.84745C11.7482 9.84745 10.6758 8.87052 10.5253 7.61042C9.54118 7.73189 8.84121 7.62807 8.72385 7.28274C8.60117 6.92173 9.14417 6.38205 10.0712 5.85677C9.80137 4.76431 10.3659 3.6103 11.4386 3.17196C12.6093 2.69355 13.945 3.24755 14.4353 4.40977Z" fill="white"/>
<rect x="17.8652" y="16.937" width="8.02609" height="4.54812" rx="2.27406" fill="white"/>
<rect x="18.9358" y="18.0066" width="5.8858" height="0.802609" rx="0.401305" fill="#7DD8AB"/>
<path d="M18.9358 20.0134C18.9358 19.7917 19.1155 19.6121 19.3371 19.6121H24.4203C24.6419 19.6121 24.8216 19.7917 24.8216 20.0134C24.8216 20.235 24.6419 20.4147 24.4203 20.4147H19.3371C19.1155 20.4147 18.9358 20.235 18.9358 20.0134Z" fill="#7DD8AB"/>
<mask id="path-7-inside-1_353_891" fill="white">
<path d="M19.7383 16.8985C19.7383 15.8853 20.5596 15.064 21.5728 15.064H21.8786C23.0606 15.064 24.0189 16.0222 24.0189 17.2043H19.7383V16.8985Z"/>
</mask>
<path d="M19.7383 17.2043H15.7383V21.2043H19.7383V17.2043ZM21.5728 19.064H21.8786V11.064H21.5728V19.064ZM24.0189 13.2043H19.7383V21.2043H24.0189V13.2043ZM23.7383 17.2043V16.8985H15.7383V17.2043H23.7383ZM21.8786 19.064C20.8515 19.064 20.0189 18.2313 20.0189 17.2043H28.0189C28.0189 13.8131 25.2698 11.064 21.8786 11.064V19.064ZM21.5728 11.064C18.3505 11.064 15.7383 13.6762 15.7383 16.8985H23.7383C23.7383 18.0945 22.7688 19.064 21.5728 19.064V11.064Z" fill="white" mask="url(#path-7-inside-1_353_891)"/>
</svg>
